<?xml version="1.0" encoding="UTF-8" standalone="no"?>
<!DOCTYPE svg PUBLIC "-//W3C//DTD SVG 1.1//EN" "http://www.w3.org/Graphics/SVG/1.1/DTD/svg11.dtd">
<svg width="100%" height="100%" viewBox="0 0 393 421" version="1.1" xmlns="http://www.w3.org/2000/svg" xmlns:xlink="http://www.w3.org/1999/xlink" xml:space="preserve" xmlns:serif="http://www.serif.com/" style="fill-rule:evenodd;clip-rule:evenodd;stroke-linejoin:round;stroke-miterlimit:2;">
    <g transform="matrix(1,0,0,1,-161,-82)">
        <path d="M350,128.8C337.629,128.8 327.602,138.827 327.602,151.198L327.602,257.598L221.202,257.598C208.831,257.598 198.804,267.625 198.804,279.996C198.804,292.367 208.831,302.394 221.202,302.394L327.602,302.394L327.602,408.794C327.602,421.165 337.629,431.192 350,431.192C362.371,431.192 372.398,421.165 372.398,408.794L372.398,302.394L478.798,302.394C491.169,302.394 501.196,292.367 501.196,279.996C501.196,267.625 491.169,257.598 478.798,257.598L372.398,257.598L372.398,151.198C372.398,138.827 362.371,128.8 350,128.8Z" style="fill-rule:nonzero;"/>
        <g id="x">
        </g>
        <g id="b">
        </g>
        <g id="a">
        </g>
        <g id="k">
        </g>
        <g id="c">
        </g>
        <g id="a1" serif:id="a">
        </g>
        <g id="j">
        </g>
        <g id="i">
        </g>
        <g id="h">
        </g>
        <g id="g">
        </g>
        <g id="f">
        </g>
        <g id="b1" serif:id="b">
        </g>
        <g id="a2" serif:id="a">
        </g>
        <g id="a3" serif:id="a">
        </g>
        <g id="w">
        </g>
        <g id="e">
        </g>
        <g id="v">
        </g>
        <g id="u">
        </g>
        <g id="e1" serif:id="e">
        </g>
        <g id="t">
        </g>
        <g id="a4" serif:id="a">
        </g>
        <g id="s">
        </g>
        <g id="b2" serif:id="b">
        </g>
        <g id="d">
        </g>
        <g id="r">
        </g>
        <g id="c1" serif:id="c">
        </g>
        <g id="f1" serif:id="f">
        </g>
        <g id="a5" serif:id="a">
        </g>
        <g id="q">
        </g>
        <g id="d1" serif:id="d">
        </g>
        <g id="p">
        </g>
        <g id="o">
        </g>
        <g id="n">
        </g>
        <g id="b3" serif:id="b">
        </g>
        <g id="d2" serif:id="d">
        </g>
        <g id="m">
        </g>
        <g id="a6" serif:id="a">
        </g>
        <g id="l">
        </g>
        <g id="c2" serif:id="c">
        </g>
    </g>
</svg>
