<?xml version="1.0" encoding="UTF-8" standalone="no"?>
<!DOCTYPE svg PUBLIC "-//W3C//DTD SVG 1.1//EN" "http://www.w3.org/Graphics/SVG/1.1/DTD/svg11.dtd">
<svg width="100%" height="100%" viewBox="0 0 447 429" version="1.1" xmlns="http://www.w3.org/2000/svg" xmlns:xlink="http://www.w3.org/1999/xlink" xml:space="preserve" xmlns:serif="http://www.serif.com/" style="fill-rule:evenodd;clip-rule:evenodd;stroke-linejoin:round;stroke-miterlimit:2;">
    <g transform="matrix(1,0,0,1,-158,-56)">
        <path d="M442.01,112C437.807,107.793 432.108,105.43 426.162,105.43C420.217,105.43 414.514,107.793 410.314,112L258.044,264.15C253.837,268.353 251.474,274.052 251.474,279.998C251.474,285.944 253.837,291.643 258.044,295.846L410.314,447.996C414.478,452.371 420.232,454.879 426.271,454.953C432.314,455.023 438.126,452.652 442.392,448.379C446.658,444.101 449.021,438.285 448.935,432.246C448.853,426.207 446.337,420.457 441.954,416.301L305.535,280.001L441.954,143.701C446.165,139.505 448.54,133.81 448.552,127.865C448.56,121.919 446.208,116.213 442.009,112.006L442.01,112Z" style="fill:rgb(157,157,157);fill-rule:nonzero;"/>
    </g>
</svg>
