<?xml version="1.0" encoding="UTF-8" standalone="no"?>
<!DOCTYPE svg PUBLIC "-//W3C//DTD SVG 1.1//EN" "http://www.w3.org/Graphics/SVG/1.1/DTD/svg11.dtd">
<svg width="100%" height="100%" viewBox="0 0 503 501" version="1.1" xmlns="http://www.w3.org/2000/svg" xmlns:xlink="http://www.w3.org/1999/xlink" xml:space="preserve" xmlns:serif="http://www.serif.com/" style="fill-rule:evenodd;clip-rule:evenodd;stroke-linejoin:round;stroke-miterlimit:2;">
    <g transform="matrix(1,0,0,1,-98,-29)">
        <path d="M350,33.602C214.08,33.602 103.6,144.032 103.6,280.002C103.6,415.922 214.08,526.402 350,526.402C485.97,526.402 596.4,415.922 596.4,280.002C596.4,144.032 485.97,33.602 350,33.602ZM350,56C473.87,56 574,156.13 574,280C574,403.81 473.87,504 350,504C226.19,504 126,403.81 126,280C126,156.13 226.19,56 350,56Z"/>
        <path d="M264.68,184.75C260.321,185.176 256.61,188.102 255.18,192.242C253.746,196.383 254.864,200.977 258.032,204L333.981,280.125L258.032,356.074C253.633,360.473 253.633,367.601 258.032,372C262.43,376.399 269.559,376.399 273.958,372L350.083,295.875L426.032,372C430.43,376.399 437.559,376.399 441.954,372C446.352,367.602 446.352,360.473 441.958,356.074L365.833,280.125L441.958,204C445.297,200.774 446.301,195.817 444.477,191.543C442.649,187.27 438.375,184.567 433.731,184.75C430.829,184.821 428.071,186.012 426.032,188.078L350.083,264.027L273.958,188.078C271.833,185.926 268.927,184.727 265.907,184.75C265.497,184.731 265.091,184.731 264.68,184.75L264.68,184.75Z"/>
        <g id="t">
        </g>
        <g id="d">
        </g>
        <g id="c">
        </g>
        <g id="g">
        </g>
        <g id="e">
        </g>
        <g id="c1" serif:id="c">
        </g>
        <g id="b">
        </g>
        <g id="j">
        </g>
        <g id="i">
        </g>
        <g id="g1" serif:id="g">
        </g>
        <g id="f">
        </g>
        <g id="b1" serif:id="b">
        </g>
        <g id="d1" serif:id="d">
        </g>
        <g id="h">
        </g>
        <g id="s">
        </g>
        <g id="h1" serif:id="h">
        </g>
        <g id="b2" serif:id="b">
        </g>
        <g id="a">
        </g>
        <g id="b3" serif:id="b">
        </g>
        <g id="a1" serif:id="a">
        </g>
        <g id="r">
        </g>
        <g id="d2" serif:id="d">
        </g>
        <g id="a2" serif:id="a">
        </g>
        <g id="q">
        </g>
        <g id="e1" serif:id="e">
        </g>
        <g id="p">
        </g>
        <g id="c2" serif:id="c">
        </g>
        <g id="o">
        </g>
        <g id="a3" serif:id="a">
        </g>
        <g id="n">
        </g>
        <g id="f1" serif:id="f">
        </g>
        <g id="m">
        </g>
        <g id="d3" serif:id="d">
        </g>
        <g id="a4" serif:id="a">
        </g>
        <g id="l">
        </g>
        <g id="c3" serif:id="c">
        </g>
        <g id="k">
        </g>
        <g id="e2" serif:id="e">
        </g>
    </g>
</svg>
