<?xml version="1.0" encoding="UTF-8" standalone="no"?>
<!DOCTYPE svg PUBLIC "-//W3C//DTD SVG 1.1//EN" "http://www.w3.org/Graphics/SVG/1.1/DTD/svg11.dtd">
<svg width="100%" height="100%" viewBox="0 0 356 870" version="1.1" xmlns="http://www.w3.org/2000/svg" xmlns:xlink="http://www.w3.org/1999/xlink" xml:space="preserve" xmlns:serif="http://www.serif.com/" style="fill-rule:evenodd;clip-rule:evenodd;stroke-linejoin:round;stroke-miterlimit:2;">
    <g id="coffee" transform="matrix(7.54451,0,0,7.54451,-9158.47,-13130.9)">
        <path d="M1228.29,1743.66L1244.9,1743.74L1245.37,1832.66C1245.37,1832.66 1245.44,1841.83 1241.74,1841.59C1234.71,1841.15 1236.49,1848.51 1231.37,1848.46C1228.3,1848.43 1228.03,1836.42 1228.03,1836.42L1228.29,1743.66Z" style="fill:rgb(102,53,46);"/>
        <g transform="matrix(1,0,0,1.01797,0,-33.2425)">
            <path d="M1234.69,1818.7C1234.69,1818.7 1241.61,1803.06 1245.64,1813.58L1245.53,1834.16C1245.53,1834.16 1245.85,1841.87 1240.64,1841.95C1236.17,1842.02 1236.68,1845.9 1234.77,1849.19C1234.06,1850.4 1227.53,1852.05 1227.97,1839.94L1228,1820.32C1228,1820.32 1231.95,1825.72 1234.69,1818.7Z" style="fill:rgb(210,175,156);"/>
        </g>
        <g transform="matrix(1,0,0,0.680477,-0.0112727,592.239)">
            <path d="M1234.69,1818.7C1234.69,1818.7 1241.61,1803.06 1245.64,1813.58L1245.53,1834.16C1245.53,1834.16 1245.85,1841.87 1240.64,1841.95C1236.17,1842.02 1236.68,1845.9 1234.77,1849.19C1234.06,1850.4 1227.53,1852.05 1227.97,1839.94L1228,1820.32C1228,1820.32 1231.95,1825.72 1234.69,1818.7Z" style="fill:rgb(226,206,196);"/>
        </g>
        <g transform="matrix(1,0,0,1,0.637727,5.40499)">
            <circle cx="1239.46" cy="1838.26" r="0.534" style="fill:rgb(210,175,156);"/>
        </g>
        <g transform="matrix(1,0,0,1,-0.153473,-2.86454)">
            <circle cx="1241.36" cy="1836.26" r="1.453" style="fill:rgb(210,175,156);"/>
        </g>
        <g transform="matrix(1,0,0,1,1.86493,1.01647)">
            <circle cx="1232.83" cy="1836.77" r="1.574" style="fill:rgb(210,175,156);"/>
        </g>
        <g transform="matrix(1,0,0,1,-1.6728,-7.60303)">
            <circle cx="1236.44" cy="1842.91" r="0.504" style="fill:rgb(210,175,156);"/>
        </g>
        <g transform="matrix(1,0,0,1,0.678421,5.09339)">
            <circle cx="1231.11" cy="1842.38" r="1.258" style="fill:rgb(210,175,156);"/>
        </g>
        <g transform="matrix(1,0,0,1,1.19378,5.20617)">
            <circle cx="1229.68" cy="1840.13" r="0.571" style="fill:rgb(210,175,156);"/>
        </g>
        <g transform="matrix(1,0,0,1,0.810094,5.20617)">
            <circle cx="1232.26" cy="1840.28" r="0.465" style="fill:rgb(210,175,156);"/>
        </g>
        <g transform="matrix(1,0,0,1,0.0767366,4.8251)">
            <circle cx="1231.07" cy="1844.72" r="0.478" style="fill:rgb(210,175,156);"/>
        </g>
        <g transform="matrix(1,0,0,1,-0.532215,6.00667)">
            <circle cx="1233.41" cy="1843.72" r="0.657" style="fill:rgb(210,175,156);"/>
        </g>
        <circle cx="1243.01" cy="1834.85" r="0.553" style="fill:rgb(210,175,156);"/>
        <circle cx="1238.62" cy="1832.63" r="0.502" style="fill:rgb(210,175,156);"/>
        <circle cx="1243.81" cy="1832.29" r="0.363" style="fill:rgb(210,175,156);"/>
        <circle cx="1230.4" cy="1836.35" r="0.696" style="fill:rgb(210,175,156);"/>
        <g transform="matrix(1,0,0,1,-3.92374,5.6352)">
            <circle cx="1233.42" cy="1842.09" r="0.59" style="fill:rgb(210,175,156);"/>
        </g>
        <g transform="matrix(1,0,0,1,1.18186,3.48977)">
            <circle cx="1241.2" cy="1839.99" r="0.887" style="fill:rgb(210,175,156);"/>
        </g>
        <g transform="matrix(1,0,0,1,-6.72782,-2.83082)">
            <circle cx="1239.15" cy="1840.35" r="0.455" style="fill:rgb(210,175,156);"/>
        </g>
        <g transform="matrix(1,0,0,1,0.587151,-0.501113)">
            <circle cx="1242.66" cy="1842.1" r="0.718" style="fill:rgb(210,175,156);"/>
        </g>
        <g transform="matrix(1,0,0,1,-0.46478,-7.82132)">
            <circle cx="1242.95" cy="1838.42" r="0.762" style="fill:rgb(210,175,156);"/>
        </g>
        <g transform="matrix(1,0,0,1,1.081,2.85001)">
            <circle cx="1240.18" cy="1841.62" r="0.384" style="fill:rgb(210,175,156);"/>
        </g>
        <g transform="matrix(1,0,0,1,0.956301,2.69159)">
            <circle cx="1232.75" cy="1845.7" r="0.451" style="fill:rgb(210,175,156);"/>
        </g>
        <g transform="matrix(1,0,0,1,0.811216,-15.5999)">
            <circle cx="1230.12" cy="1839.53" r="1.032" style="fill:rgb(102,53,46);"/>
        </g>
        <g transform="matrix(1,0,0,1,8.00854,-22.0162)">
            <circle cx="1233.82" cy="1836.23" r="1.657" style="fill:rgb(102,53,46);"/>
        </g>
        <g transform="matrix(1,0,0,1,13.8752,-30.0062)">
            <circle cx="1230.03" cy="1842.6" r="0.755" style="fill:rgb(102,53,46);"/>
        </g>
        <g transform="matrix(1,0,0,1,-0.615362,-26.5006)">
            <circle cx="1242.97" cy="1837.84" r="0.648" style="fill:rgb(102,53,46);"/>
        </g>
        <g transform="matrix(1,0,0,1,-2.89944,-23.7782)">
            <circle cx="1243.48" cy="1835.64" r="0.548" style="fill:rgb(102,53,46);"/>
        </g>
        <g transform="matrix(1,0,0,1,-0.561947,-17.0831)">
            <circle cx="1234.62" cy="1841.52" r="0.984" style="fill:rgb(102,53,46);"/>
        </g>
        <g transform="matrix(1,0,0,1,-4.51881,-22.1661)">
            <circle cx="1233.85" cy="1844.86" r="0.577" style="fill:rgb(102,53,46);"/>
        </g>
        <g transform="matrix(1,0,0,1,3.85974,-24.9952)">
            <circle cx="1230.15" cy="1847.06" r="0.533" style="fill:rgb(102,53,46);"/>
        </g>
        <g transform="matrix(1,0,0,1,-0.0181464,-23.1033)">
            <circle cx="1232.07" cy="1849" r="0.449" style="fill:rgb(102,53,46);"/>
        </g>
        <g transform="matrix(1,0,0,1,2.99186,-31.8352)">
            <circle cx="1234.54" cy="1846.71" r="0.467" style="fill:rgb(102,53,46);"/>
        </g>
        <g transform="matrix(1,0,0,1,4.92698,-32.4751)">
            <circle cx="1233.75" cy="1848.58" r="0.402" style="fill:rgb(102,53,46);"/>
        </g>
        <g transform="matrix(1,0,0,1,2.26157,-25.5747)">
            <circle cx="1234.81" cy="1842.3" r="0.943" style="fill:rgb(102,53,46);"/>
        </g>
        <g transform="matrix(1,0,0,1,2.28926,-27.2345)">
            <circle cx="1236.97" cy="1840.58" r="0.479" style="fill:rgb(102,53,46);"/>
        </g>
        <g transform="matrix(1,0,0,1,-3.91797,-19.5257)">
            <circle cx="1236.38" cy="1842.68" r="0.601" style="fill:rgb(102,53,46);"/>
        </g>
    </g>
</svg>
