<?xml version="1.0" encoding="UTF-8" standalone="no"?>
<!DOCTYPE svg PUBLIC "-//W3C//DTD SVG 1.1//EN" "http://www.w3.org/Graphics/SVG/1.1/DTD/svg11.dtd">
<svg width="100%" height="100%" viewBox="0 0 700 575" version="1.1" xmlns="http://www.w3.org/2000/svg" xmlns:xlink="http://www.w3.org/1999/xlink" xml:space="preserve" xmlns:serif="http://www.serif.com/" style="fill-rule:evenodd;clip-rule:evenodd;stroke-linejoin:round;stroke-miterlimit:2;">
    <g>
        <path d="M371.88,208.78C371.88,219.624 363.091,228.417 352.247,228.417C341.403,228.417 332.614,219.624 332.614,208.78C332.614,197.94 341.403,189.147 352.247,189.147C363.091,189.147 371.88,197.94 371.88,208.78" style="fill-rule:nonzero;"/>
        <path d="M352.25,111.11C450.973,111.11 531.29,191.43 531.29,290.15C531.29,388.87 450.97,469.2 352.25,469.2C253.53,469.2 173.2,388.884 173.2,290.16C173.2,191.43 253.524,111.11 352.25,111.11M352.25,91.219C242.38,91.219 153.31,180.285 153.31,290.159C153.31,400.029 242.376,489.099 352.25,489.099C462.12,489.099 551.19,400.033 551.19,290.159C551.19,180.289 462.116,91.219 352.25,91.219Z" style="fill-rule:nonzero;"/>
        <rect x="338.32" y="255.19" width="27.848" height="135.99" style="fill-rule:nonzero;"/>
        <g id="t">
        </g>
        <g id="c">
        </g>
        <g id="a">
        </g>
        <g id="i">
        </g>
        <g id="b">
        </g>
        <g id="a1" serif:id="a">
        </g>
        <g id="h">
        </g>
        <g id="g">
        </g>
        <g id="f">
        </g>
        <g id="e">
        </g>
        <g id="s">
        </g>
        <g id="r">
        </g>
        <g id="q">
        </g>
        <g id="c1" serif:id="c">
        </g>
        <g id="d">
        </g>
        <g id="p">
        </g>
        <g id="b1" serif:id="b">
        </g>
        <g id="o">
        </g>
        <g id="a2" serif:id="a">
        </g>
        <g id="e1" serif:id="e">
        </g>
        <g id="d1" serif:id="d">
        </g>
        <g id="n">
        </g>
        <g id="m">
        </g>
        <g id="l">
        </g>
        <g id="c2" serif:id="c">
        </g>
        <g id="d2" serif:id="d">
        </g>
        <g id="k">
        </g>
        <g id="a3" serif:id="a">
        </g>
        <g id="j">
        </g>
        <g id="b2" serif:id="b">
        </g>
    </g>
</svg>
