<?xml version="1.0" encoding="UTF-8" standalone="no"?>
<!DOCTYPE svg PUBLIC "-//W3C//DTD SVG 1.1//EN" "http://www.w3.org/Graphics/SVG/1.1/DTD/svg11.dtd">
<svg width="100%" height="100%" viewBox="0 0 439 467" version="1.1" xmlns="http://www.w3.org/2000/svg" xmlns:xlink="http://www.w3.org/1999/xlink" xml:space="preserve" xmlns:serif="http://www.serif.com/" style="fill-rule:evenodd;clip-rule:evenodd;stroke-linejoin:round;stroke-miterlimit:2;">
    <g transform="matrix(1,0,0,1,-132,-43)">
        <path d="M561.49,341.34L561.49,65.35C561.49,60.194 557.314,56.018 552.158,56.018L147.838,56.018C142.678,56.018 138.506,60.198 138.506,65.35L138.506,341.33C138.506,346.486 142.682,350.662 147.838,350.662L386.648,350.662C386.757,354.072 387.441,357.482 388.796,360.713C385.414,362.065 382.308,364.104 379.656,366.76C374.515,371.904 371.679,378.74 371.679,386.018C371.679,389.709 372.41,393.287 373.792,396.584C370.703,397.885 367.812,399.787 365.308,402.299L364.988,402.619C359.82,407.787 356.968,414.646 356.957,421.928C356.949,429.213 359.792,436.065 364.933,441.209L404.089,480.365C419.319,495.595 439.628,503.978 461.273,503.978L461.347,503.978C483.093,503.958 503.503,495.498 518.796,480.154C569.554,429.24 548.128,392.576 532.487,365.804C529.398,360.519 526.472,355.417 524.362,350.659L552.159,350.659C557.312,350.663 561.488,346.483 561.488,341.331L561.49,341.34ZM505.58,466.98C493.803,478.792 478.092,485.304 461.33,485.32L461.275,485.32C444.615,485.32 428.99,478.882 417.287,467.175L378.139,428.019C376.518,426.402 375.624,424.246 375.624,421.953C375.624,419.652 376.534,417.472 378.186,415.824L378.507,415.503C380.073,413.937 382.135,413.156 384.194,413.156C386.245,413.156 388.296,413.937 389.862,415.495C393.507,419.132 399.425,419.136 403.05,415.484C406.695,411.843 406.695,405.937 403.05,402.293L392.851,392.09C389.507,388.75 389.515,383.309 392.851,379.965C396.097,376.73 401.73,376.73 404.972,379.965C408.617,383.609 414.523,383.609 418.171,379.965C421.816,376.324 421.816,370.414 418.171,366.766L408.292,356.883C404.73,353.317 404.253,347.707 407.245,344.391C408.851,342.614 411.038,341.598 413.417,341.539C415.679,341.282 418.03,342.368 419.706,344.047C423.351,347.692 429.257,347.692 432.905,344.047C434.729,342.223 435.64,339.836 435.64,337.449C435.64,335.063 434.729,332.672 432.905,330.852L383.12,281.063C379.546,277.5 379.081,271.895 382.073,268.571C383.679,266.793 385.866,265.778 388.245,265.719C390.597,265.59 392.859,266.547 394.534,268.227L470.651,344.344C473.323,347.016 477.315,347.809 480.796,346.379C484.277,344.949 486.558,341.571 486.585,337.809C486.66,327.93 487.304,300.364 489.628,290.801C491.105,285.199 495.781,285.414 497.73,285.762C499.336,286.047 504.519,287.465 503.929,293.691C503.511,298.066 503.089,312.882 502.679,337.722L502.66,338.758C502.433,351.387 509.203,362.977 516.379,375.242C531.031,400.308 546.188,426.246 505.582,466.98L505.58,466.98ZM542.822,332L521.439,332C521.912,305.004 522.298,297.492 522.494,295.449C523.99,279.789 512.814,269.472 500.994,267.367C487.439,264.91 475.053,272.801 471.58,285.988L471.298,287.129C469.775,293.394 468.927,305.129 468.463,315.758L407.725,255.012C402.475,249.758 395.202,246.976 387.756,247.043C380.209,247.238 373.264,250.441 368.197,256.066C358.509,266.836 359.263,283.609 369.919,294.254L401.399,325.742C398.411,327.246 395.692,329.316 393.368,331.895C393.337,331.93 393.313,331.969 393.282,332.004L157.172,332L157.172,74.68L542.822,74.68L542.822,332Z" style="fill-rule:nonzero;"/>
        <path d="M186.82,150.8L230.769,150.8C235.929,150.8 240.101,146.62 240.101,141.468L240.101,97.511C240.101,92.355 235.925,88.179 230.769,88.179L186.82,88.179C181.66,88.179 177.488,92.359 177.488,97.511L177.488,141.468C177.488,146.624 181.664,150.8 186.82,150.8ZM196.156,106.847L221.441,106.847L221.441,132.136L196.156,132.136L196.156,106.847Z" style="fill-rule:nonzero;"/>
        <path d="M280.95,150.8L324.911,150.8C330.071,150.8 334.243,146.62 334.243,141.468L334.243,97.511C334.243,92.355 330.067,88.179 324.911,88.179L280.95,88.179C275.79,88.179 271.618,92.359 271.618,97.511L271.618,141.468C271.618,146.624 275.79,150.8 280.95,150.8ZM290.282,106.847L315.575,106.847L315.575,132.136L290.282,132.136L290.282,106.847Z" style="fill-rule:nonzero;"/>
        <path d="M375.09,150.8L419.039,150.8C424.199,150.8 428.371,146.62 428.371,141.468L428.371,97.511C428.371,92.355 424.195,88.179 419.039,88.179L375.09,88.179C369.93,88.179 365.758,92.359 365.758,97.511L365.758,141.468C365.754,146.624 369.93,150.8 375.09,150.8ZM384.422,106.847L409.707,106.847L409.707,132.136L384.422,132.136L384.422,106.847Z" style="fill-rule:nonzero;"/>
        <path d="M469.21,150.8L513.171,150.8C518.331,150.8 522.503,146.62 522.503,141.468L522.503,97.511C522.503,92.355 518.327,88.179 513.171,88.179L469.21,88.179C464.05,88.179 459.878,92.359 459.878,97.511L459.878,141.468C459.874,146.624 464.05,150.8 469.21,150.8ZM478.542,106.847L503.835,106.847L503.835,132.136L478.542,132.136L478.542,106.847Z" style="fill-rule:nonzero;"/>
        <path d="M186.82,234.62L230.769,234.62C235.929,234.62 240.101,230.44 240.101,225.288L240.101,181.331C240.101,176.175 235.925,171.999 230.769,171.999L186.82,171.999C181.66,171.999 177.488,176.179 177.488,181.331L177.488,225.288C177.488,230.44 181.664,234.62 186.82,234.62ZM196.156,190.667L221.441,190.667L221.441,215.956L196.156,215.956L196.156,190.667Z" style="fill-rule:nonzero;"/>
        <path d="M280.95,234.62L324.911,234.62C330.071,234.62 334.243,230.44 334.243,225.288L334.243,181.331C334.243,176.175 330.067,171.999 324.911,171.999L280.95,171.999C275.79,171.999 271.618,176.179 271.618,181.331L271.618,225.288C271.618,230.44 275.79,234.62 280.95,234.62ZM290.282,190.667L315.575,190.667L315.575,215.956L290.282,215.956L290.282,190.667Z" style="fill-rule:nonzero;"/>
        <path d="M375.09,234.62L419.039,234.62C424.199,234.62 428.371,230.44 428.371,225.288L428.371,181.331C428.371,176.175 424.195,171.999 419.039,171.999L375.09,171.999C369.93,171.999 365.758,176.179 365.758,181.331L365.758,225.288C365.754,230.44 369.93,234.62 375.09,234.62ZM384.422,190.667L409.707,190.667L409.707,215.956L384.422,215.956L384.422,190.667Z" style="fill-rule:nonzero;"/>
        <path d="M469.21,234.62L513.171,234.62C518.331,234.62 522.503,230.44 522.503,225.288L522.503,181.331C522.503,176.175 518.327,171.999 513.171,171.999L469.21,171.999C464.05,171.999 459.878,176.179 459.878,181.331L459.878,225.288C459.874,230.44 464.05,234.62 469.21,234.62ZM478.542,190.667L503.835,190.667L503.835,215.956L478.542,215.956L478.542,190.667Z" style="fill-rule:nonzero;"/>
        <path d="M186.82,318.45L230.769,318.45C235.929,318.45 240.101,314.27 240.101,309.118L240.101,265.161C240.101,260.005 235.925,255.829 230.769,255.829L186.82,255.829C181.66,255.829 177.488,260.009 177.488,265.161L177.488,309.118C177.488,314.27 181.664,318.45 186.82,318.45ZM196.156,274.493L221.441,274.493L221.441,299.782L196.156,299.782L196.156,274.493Z" style="fill-rule:nonzero;"/>
        <path d="M280.95,318.45L324.911,318.45C330.071,318.45 334.243,314.27 334.243,309.118L334.243,265.161C334.243,260.005 330.067,255.829 324.911,255.829L280.95,255.829C275.79,255.829 271.618,260.009 271.618,265.161L271.618,309.118C271.618,314.27 275.79,318.45 280.95,318.45ZM290.282,274.493L315.575,274.493L315.575,299.782L290.282,299.782L290.282,274.493Z" style="fill-rule:nonzero;"/>
        <g id="m">
        </g>
        <g id="d">
        </g>
        <g id="b">
        </g>
        <g id="c">
        </g>
        <g id="a">
        </g>
        <g id="b1" serif:id="b">
        </g>
        <g id="i">
        </g>
        <g id="h">
        </g>
        <g id="g">
        </g>
        <g id="f">
        </g>
        <g id="b2" serif:id="b">
        </g>
        <g id="l">
        </g>
        <g id="a1" serif:id="a">
        </g>
        <g id="k">
        </g>
        <g id="d1" serif:id="d">
        </g>
        <g id="j">
        </g>
        <g id="a2" serif:id="a">
        </g>
        <g id="c1" serif:id="c">
        </g>
        <g id="e">
        </g>
        <g id="e1" serif:id="e">
        </g>
    </g>
</svg>
