<?xml version="1.0" encoding="UTF-8" standalone="no"?>
<!DOCTYPE svg PUBLIC "-//W3C//DTD SVG 1.1//EN" "http://www.w3.org/Graphics/SVG/1.1/DTD/svg11.dtd">
<svg width="100%" height="100%" viewBox="0 0 393 347" version="1.1" xmlns="http://www.w3.org/2000/svg" xmlns:xlink="http://www.w3.org/1999/xlink" xml:space="preserve" xmlns:serif="http://www.serif.com/" style="fill-rule:evenodd;clip-rule:evenodd;stroke-linecap:round;stroke-linejoin:round;stroke-miterlimit:10;">
    <g transform="matrix(6.2222,0,0,6.2222,-83,-117)">
        <path d="M48.1,70.5L61.7,62.6L68.6,58.7L72,56.7L72.8,56.2L73.2,55.9L73.5,55.6L73.8,55.3L73.9,55L74,54.6L73.9,54.3" style="fill:none;fill-rule:nonzero;stroke:black;stroke-width:1.42px;"/>
    </g>
    <g transform="matrix(6.2222,0,0,6.2222,-83,-117)">
        <path d="M16,54.2L16,54.7L16.1,55.1L16.3,55.5L16.7,55.8L17.1,56.2L17.6,56.5L18.6,57L22.6,59.4L30.7,64L38.7,68.699L40.7,69.8L41.7,70.399L42.2,70.699L42.8,70.9L43.5,71.099L44.2,71.2L44.9,71.3L45.6,71.2L46.3,71.099L46.9,71L47.5,70.8L48.1,70.5" style="fill:none;fill-rule:nonzero;stroke:black;stroke-width:1.42px;"/>
    </g>
    <g transform="matrix(6.2222,0,0,6.2222,-83,-117)">
        <path d="M70.5,39.1L70.8,38.7L71,38.3L71.1,37.9L71.1,37.6L71,37.2L70.7,36.8L70.4,36.5L69.9,36.2L66,33.9L58.2,29.4L50.4,24.9L48.4,23.7L47.9,23.5L47.4,23.2L46.8,23L46.2,22.8L45.5,22.8L44.8,22.7L44.1,22.8L43.5,22.9L42.9,23.1L42.3,23.4L41.4,24" style="fill:none;fill-rule:nonzero;stroke:black;stroke-width:1.42px;"/>
    </g>
    <g transform="matrix(6.2222,0,0,6.2222,-83,-117)">
        <path d="M20.7,35.9L20.2,36.2L19.7,36.5L19.4,36.8L19.1,37.2L19,37.6L19,38L19.1,38.3L19.3,38.7L19.6,39.1L20.1,39.4L21,39.9L22.9,41L30.6,45.4L38.2,49.8L42,52.1L42.5,52.3L43,52.6L43.7,52.7L44.3,52.8L45,52.9L45.6,52.9L46.3,52.8L46.899,52.6" style="fill:none;fill-rule:nonzero;stroke:black;stroke-width:1.42px;"/>
    </g>
    <g transform="matrix(6.2222,0,0,6.2222,-83,-117)">
        <path d="M16,54.2L19,37.6" style="fill:none;fill-rule:nonzero;stroke:black;stroke-width:1.42px;"/>
    </g>
    <g transform="matrix(6.2222,0,0,6.2222,-83,-117)">
        <path d="M71.1,37.6L73.9,54.3" style="fill:none;fill-rule:nonzero;stroke:black;stroke-width:1.42px;"/>
    </g>
    <g transform="matrix(6.2222,0,0,6.2222,-83,-117)">
        <path d="M46.9,52.6L49.5,51.8L52.101,50.9L54.7,49.8L57.1,48.6L59.5,47.3L61.9,45.9L64.2,44.3L66.4,42.7L68.5,40.9L70.5,39.1" style="fill:none;fill-rule:nonzero;stroke:black;stroke-width:1.42px;"/>
    </g>
    <g transform="matrix(6.2222,0,0,6.2222,-83,-117)">
        <path d="M20.7,35.9L23.2,35L25.7,34.1L28.1,32.9L30.5,31.7L32.8,30.4L35.1,28.9L37.2,27.4L39.3,25.7L41.4,24" style="fill:none;fill-rule:nonzero;stroke:black;stroke-width:1.42px;"/>
    </g>
    <g transform="matrix(6.2222,0,0,6.2222,-83,-117)">
        <path d="M48.2,71.3L62.3,63.2L69.4,59.1L73,57L73.8,56.5L74.2,56.2L74.5,55.9L74.8,55.6L74.9,55.2L75,54.9L75,54.5" style="fill:none;fill-rule:nonzero;stroke:black;stroke-width:1.39px;"/>
    </g>
    <g transform="matrix(6.2222,0,0,6.2222,-83,-117)">
        <path d="M15,54.5L15,54.901L15.1,55.4L15.3,55.8L15.7,56.1L16.101,56.5L16.6,56.8L17.6,57.4L30.2,64.6L38.5,69.4L40.6,70.6L41.6,71.2L42.101,71.501L42.7,71.8L43.4,71.9L44.1,72.1L45.601,72.1L46.301,72L47.001,71.8L47.601,71.6L48.2,71.3" style="fill:none;fill-rule:nonzero;stroke:black;stroke-width:1.39px;"/>
    </g>
    <g transform="matrix(6.2222,0,0,6.2222,-83,-117)">
        <path d="M72.1,37.3L72,37.2L71.9,36.8L71.6,36.4L71.3,36.1L70.8,35.8L66.7,33.4L58.6,28.8L50.5,24.1L48.5,22.9L48,22.6L47.5,22.3L46.9,22.1L46.2,22L45.5,21.9L44.8,21.9L44.1,22L43.4,22.1L42.8,22.3L42.2,22.5L41.2,23.1" style="fill:none;fill-rule:nonzero;stroke:black;stroke-width:1.39px;"/>
    </g>
    <g transform="matrix(6.2222,0,0,6.2222,-83,-117)">
        <path d="M72.1,37.4L72.1,37.3" style="fill:none;fill-rule:nonzero;stroke:black;stroke-width:1.39px;"/>
    </g>
    <g transform="matrix(6.2222,0,0,6.2222,-83,-117)">
        <path d="M19.8,35.5L19.3,35.799L18.8,36.1L18.5,36.499L18.2,36.8L18.1,37.199L18.1,37.4" style="fill:none;fill-rule:nonzero;stroke:black;stroke-width:1.39px;"/>
    </g>
    <g transform="matrix(6.2222,0,0,6.2222,-83,-117)">
        <path d="M15,54.5L18.1,37.4" style="fill:none;fill-rule:nonzero;stroke:black;stroke-width:1.39px;"/>
    </g>
    <g transform="matrix(6.2222,0,0,6.2222,-83,-117)">
        <path d="M72.1,37.3L75,54.5" style="fill:none;fill-rule:nonzero;stroke:black;stroke-width:1.39px;"/>
    </g>
    <g transform="matrix(6.2222,0,0,6.2222,-83,-117)">
        <path d="M19.8,35.5L22.4,34.6L25,33.6L27.5,32.4L30,31.2L32.4,29.8L34.7,28.3L37,26.7L39.1,25L41.2,23.1" style="fill:none;fill-rule:nonzero;stroke:black;stroke-width:1.39px;"/>
    </g>
</svg>
