<?xml version="1.0" encoding="UTF-8" standalone="no"?>
<!DOCTYPE svg PUBLIC "-//W3C//DTD SVG 1.1//EN" "http://www.w3.org/Graphics/SVG/1.1/DTD/svg11.dtd">
<svg width="100%" height="100%" viewBox="0 0 700 582" version="1.1" xmlns="http://www.w3.org/2000/svg" xmlns:xlink="http://www.w3.org/1999/xlink" xml:space="preserve" xmlns:serif="http://www.serif.com/" style="fill-rule:evenodd;clip-rule:evenodd;stroke-linejoin:round;stroke-miterlimit:2;">
    <g>
        <path d="M197.4,364C189.002,364 183.4,358.398 183.4,350C183.4,341.602 189.002,336 197.4,336C225.4,336 253.4,324.801 273.002,305.199C278.604,299.597 287.002,299.597 292.604,305.199C298.206,310.801 298.206,319.199 292.604,324.801C267.401,350 232.401,364 197.401,364L197.4,364Z" style="fill:rgb(157,157,157);fill-rule:nonzero;"/>
        <path d="M350,0C196,0 70,126 70,280C70,434 196,560 350,560C504,560 630,434 630,280C630,126 504,0 350,0ZM350,532C211.4,532 98,418.6 98,280C98,141.4 211.4,28 350,28C488.6,28 602,141.4 602,280C602,418.6 488.6,532 350,532Z" style="fill:rgb(157,157,157);fill-rule:nonzero;"/>
        <path d="M515.2,361.2L476.001,400.399C473.2,403.2 469.001,404.598 466.2,404.598C462.001,404.598 459.2,403.2 456.399,400.399C450.798,394.797 450.798,386.399 456.399,380.797L471.797,365.399L439.598,365.399C403.2,365.399 369.598,351.399 344.399,326.2L274.399,256.2C254.797,236.598 226.797,225.399 198.797,225.399C190.399,225.399 184.797,219.797 184.797,211.399C184.797,203.001 190.399,197.399 198.797,197.399C233.797,197.399 268.797,211.399 293.996,236.598L363.996,306.598C384.996,326.2 411.598,337.399 439.598,337.399L471.797,337.399L456.399,322.001C450.798,316.399 450.798,308.001 456.399,302.399C462.001,296.797 470.399,296.797 476.001,302.399L515.2,341.598C520.802,345.801 520.802,355.602 515.2,361.2Z" style="fill:rgb(157,157,157);fill-rule:nonzero;"/>
        <path d="M515.2,219.8L476.001,258.999C473.2,261.8 469.001,263.198 466.2,263.198C462.001,263.198 459.2,261.8 456.399,258.999C450.798,253.397 450.798,244.999 456.399,239.397L471.797,223.999L439.598,223.999C411.598,223.999 383.598,235.198 363.996,254.8C361.196,257.601 356.996,258.999 354.196,258.999C349.996,258.999 347.196,257.601 344.395,254.8C338.793,249.198 338.793,240.8 344.395,235.198C369.594,209.999 403.196,195.999 439.594,195.999L471.793,195.999L456.395,180.601C450.793,174.999 450.793,166.601 456.395,160.999C461.996,155.397 470.395,155.397 475.997,160.999L515.196,200.198C520.801,204.397 520.801,214.198 515.2,219.8Z" style="fill:rgb(157,157,157);fill-rule:nonzero;"/>
    </g>
</svg>
