<?xml version="1.0" encoding="UTF-8" standalone="no"?>
<!DOCTYPE svg PUBLIC "-//W3C//DTD SVG 1.1//EN" "http://www.w3.org/Graphics/SVG/1.1/DTD/svg11.dtd">
<svg width="100%" height="100%" viewBox="0 0 456 393" version="1.1" xmlns="http://www.w3.org/2000/svg" xmlns:xlink="http://www.w3.org/1999/xlink" xml:space="preserve" xmlns:serif="http://www.serif.com/" style="fill-rule:evenodd;clip-rule:evenodd;stroke-linejoin:round;stroke-miterlimit:2;">
    <g transform="matrix(1,0,0,1,-133,-80)">
        <path d="M350,291.2C366.336,291.2 382.004,284.712 393.559,273.157C405.11,261.606 411.602,245.938 411.602,229.602L411.602,162.399L450.801,162.399L471.633,354.989C482.664,351.923 494.356,352.196 505.231,355.774L484.399,158.824C483.512,150.547 479.587,142.894 473.376,137.351C467.169,131.804 459.126,128.761 450.802,128.808L249.202,128.808C240.878,128.761 232.835,131.804 226.628,137.351C220.417,142.894 216.491,150.546 215.605,158.824L193.207,365.354L193.203,365.354C191.402,382.206 196.867,399.026 208.234,411.6C219.597,424.174 235.785,431.307 252.73,431.209L431.93,431.209C428.02,420.432 427.434,408.725 430.246,397.611L252.726,397.611C245.348,397.65 238.3,394.545 233.351,389.072C228.402,383.599 226.019,376.275 226.801,368.939L249.199,162.409L288.398,162.409L288.398,229.612C288.398,245.948 294.89,261.616 306.441,273.167C317.996,284.722 333.664,291.21 350,291.21L350,291.2ZM378,162.399L378,229.602C378,239.602 372.664,248.848 364,253.848C355.336,258.852 344.664,258.852 336,253.848C327.336,248.848 322,239.602 322,229.602L322,162.399L378,162.399Z" style="fill-rule:nonzero;"/>
        <path d="M487.2,431.2C492.399,431.2 497.384,429.138 501.059,425.462C504.735,421.786 506.801,416.798 506.801,411.603C506.801,406.404 504.735,401.419 501.059,397.744C497.383,394.068 492.399,392.002 487.2,392.002C482.001,392.002 477.016,394.068 473.341,397.744C469.665,401.42 467.603,406.404 467.603,411.603C467.603,416.798 469.665,421.787 473.341,425.462C477.017,429.138 482.001,431.2 487.2,431.2Z" style="fill-rule:nonzero;"/>
        <g id="g">
        </g>
        <g id="a">
        </g>
        <g id="b">
        </g>
        <g id="e">
        </g>
        <g id="d">
        </g>
        <g id="b1" serif:id="b">
        </g>
        <g id="k">
        </g>
        <g id="j">
        </g>
        <g id="i">
        </g>
        <g id="h">
        </g>
        <g id="a1" serif:id="a">
        </g>
        <g id="b2" serif:id="b">
        </g>
        <g id="u">
        </g>
        <g id="c">
        </g>
        <g id="a2" serif:id="a">
        </g>
        <g id="g1" serif:id="g">
        </g>
        <g id="a3" serif:id="a">
        </g>
        <g id="b3" serif:id="b">
        </g>
        <g id="t">
        </g>
        <g id="f">
        </g>
        <g id="e1" serif:id="e">
        </g>
        <g id="a4" serif:id="a">
        </g>
        <g id="s">
        </g>
        <g id="a5" serif:id="a">
        </g>
        <g id="c1" serif:id="c">
        </g>
        <g id="r">
        </g>
        <g id="d1" serif:id="d">
        </g>
        <g id="q">
        </g>
        <g id="b4" serif:id="b">
        </g>
        <g id="p">
        </g>
        <g id="c2" serif:id="c">
        </g>
        <g id="o">
        </g>
        <g id="f1" serif:id="f">
        </g>
        <g id="n">
        </g>
        <g id="a6" serif:id="a">
        </g>
        <g id="c3" serif:id="c">
        </g>
        <g id="m">
        </g>
        <g id="b5" serif:id="b">
        </g>
        <g id="l">
        </g>
        <g id="d2" serif:id="d">
        </g>
    </g>
</svg>
